# xmcd
#
# Track frame offsets:
#	150
#	16648
#	35021
#	50291
#	78941
#	100703
#	128388
#	171479
#	188942
#	221487
#	240970
#	258258
#	287318
#	313511
#
# Disc length: 4440
#
# Revision: 2
# Processed by: cddbd v1.5.1PL0 Copyright (c) Steve Scherf et al.
# Submitted via: CDex 1.51
# Normalized: r0:TDELIM( - ),TSWAP
#
DISCID=a711560e
DTITLE=Various Artist - Jazz Greats Live
DYEAR=1900
DGENRE=Jazz
TTITLE0=Count Basie - The Kid from Red Bank
TTITLE1=Duke Ellington - Things Ain't what they used to be
TTITLE2=Coleman Hawkins - Body and Soul
TTITLE3=Chet Baker - Milestones
TTITLE4=Louis Armstrong - La Vie en Rose
TTITLE5=Dexter Gorden - I guess I'll hang my tears out to dry
TTITLE6=Art Blakey - Along came Betty
TTITLE7=Dizzy Gilespie - I can't get started
TTITLE8=Thelonius Monk - Evidence
TTITLE9=Lionel Hampton - Stardust
TTITLE10=Lester Young - I don't stand a Ghost of a chance
TTITLE11=Wes Montgomery - Four on Six
TTITLE12=Lee Morgan - I remeber Clifford
TTITLE13=Charlie Parker - Ka Ka
EXTD=
EXTT0=
EXTT1=
EXTT2=
EXTT3=
EXTT4=
EXTT5=
EXTT6=
EXTT7=
EXTT8=
EXTT9=
EXTT10=
EXTT11=
EXTT12=
EXTT13=
PLAYORDER=
